<svg xmlns="http://www.w3.org/2000/svg" version="1.0" width="325.000000pt" height="450.000000pt" viewBox="0 0 325.000000 450.000000" preserveAspectRatio="xMidYMid meet">

<g transform="translate(0.000000,450.000000) scale(0.100000,-0.100000)" fill="#be185d" stroke="none">
<path d="M1551 4310 c-23 -5 -64 -22 -90 -36 -96 -57 -146 -134 -163 -256 -7 -49 -9 -504 -6 -1365 3 -710 2 -1297 -2 -1303 -4 -6 -126 108 -296 278 -333 332 -351 345 -483 346 -64 1 -85 -4 -133 -27 -119 -58 -189 -164 -189 -286 0 -71 18 -134 53 -184 34 -50 1124 -1141 1205 -1207 110 -89 198 -100 307 -36 26 15 300 282 643 626 674 676 659 658 657 789 -3 162 -106 288 -263 322 -66 14 -156 -2 -217 -37 -23 -14 -170 -153 -325 -309 -156 -156 -287 -281 -291 -279 -4 3 -8 607 -8 1343 0 1471 3 1394 -60 1486 -72 104 -213 161 -339 135z" fill="#be185d"/>
</g>
</svg>