<svg xmlns="http://www.w3.org/2000/svg" xmlns:xlink="http://www.w3.org/1999/xlink" width="500" zoomAndPan="magnify" viewBox="0 0 375 374.999991" height="500" preserveAspectRatio="xMidYMid meet" version="1.0"><defs><g/><clipPath id="1dcb567d45"><path d="M 53.902344 48.492188 L 321.097656 48.492188 L 321.097656 315.691406 L 53.902344 315.691406 Z M 53.902344 48.492188 " clip-rule="nonzero"/></clipPath><clipPath id="a2f88e4ae4"><path d="M 187.5 48.492188 C 113.714844 48.492188 53.902344 108.304688 53.902344 182.089844 C 53.902344 255.875 113.714844 315.691406 187.5 315.691406 C 261.285156 315.691406 321.097656 255.875 321.097656 182.089844 C 321.097656 108.304688 261.285156 48.492188 187.5 48.492188 Z M 187.5 48.492188 " clip-rule="nonzero"/></clipPath><clipPath id="6b8bccf30f"><path d="M 148.515625 66.175781 L 172.285156 66.175781 L 172.285156 139.792969 L 148.515625 139.792969 Z M 148.515625 66.175781 " clip-rule="nonzero"/></clipPath><clipPath id="b92e25e4eb"><path d="M 148.515625 199.957031 L 172.285156 199.957031 L 172.285156 273.574219 L 148.515625 273.574219 Z M 148.515625 199.957031 " clip-rule="nonzero"/></clipPath><clipPath id="a61ea9df12"><path d="M 173.46875 158.359375 L 247.085938 158.359375 L 247.085938 182.128906 L 173.46875 182.128906 Z M 173.46875 158.359375 " clip-rule="nonzero"/></clipPath></defs><g clip-path="url(#1dcb567d45)"><g clip-path="url(#a2f88e4ae4)"><path fill="#000000" d="M 53.902344 48.492188 L 321.097656 48.492188 L 321.097656 315.691406 L 53.902344 315.691406 Z M 53.902344 48.492188 " fill-opacity="1" fill-rule="nonzero"/></g></g><g fill="#f8f8f8" fill-opacity="1"><g transform="translate(70.30133, 259.790584)"><g><path d="M 94.375 1.75 L 94.125 1.75 L 94.125 4.515625 C 94.125 18.234375 96.675781 28.394531 101.78125 35 C 106.882812 41.613281 115.375 44.921875 127.25 44.921875 C 135.289062 44.921875 141.773438 42.742188 146.703125 38.390625 C 151.640625 34.046875 154.613281 28.273438 155.625 21.078125 L 162.90625 22.59375 C 161.394531 31.289062 157.539062 38.359375 151.34375 43.796875 C 145.15625 49.234375 137.125 51.953125 127.25 51.953125 C 113.695312 51.953125 103.488281 47.9375 96.625 39.90625 C 89.769531 31.875 86.34375 20.328125 86.34375 5.265625 L 86.34375 1.5 C 65.257812 -0.332031 48.566406 -8.78125 36.265625 -23.84375 C 23.972656 -38.90625 17.828125 -59.570312 17.828125 -85.84375 C 17.828125 -104.414062 21.378906 -120.851562 28.484375 -135.15625 C 35.597656 -149.46875 45.300781 -160.640625 57.59375 -168.671875 C 69.894531 -176.703125 83.828125 -180.71875 99.390625 -180.71875 C 114.285156 -180.71875 127.296875 -177.035156 138.421875 -169.671875 C 149.554688 -162.304688 158.21875 -152.054688 164.40625 -138.921875 C 170.59375 -125.785156 173.6875 -110.351562 173.6875 -92.625 C 173.6875 -73.375 170.253906 -56.675781 163.390625 -42.53125 C 156.535156 -28.394531 147.164062 -17.476562 135.28125 -9.78125 C 123.40625 -2.09375 109.769531 1.75 94.375 1.75 Z M 94.375 -6.03125 C 108.425781 -6.03125 120.804688 -9.457031 131.515625 -16.3125 C 142.234375 -23.175781 150.601562 -33.132812 156.625 -46.1875 C 162.644531 -59.238281 165.65625 -75.050781 165.65625 -93.625 C 165.65625 -110.019531 162.9375 -124.113281 157.5 -135.90625 C 152.0625 -147.707031 144.40625 -156.828125 134.53125 -163.265625 C 124.664062 -169.710938 113.035156 -172.9375 99.640625 -172.9375 C 85.253906 -172.9375 72.492188 -169.335938 61.359375 -162.140625 C 50.234375 -154.953125 41.535156 -144.789062 35.265625 -131.65625 C 28.992188 -118.519531 25.859375 -103.082031 25.859375 -85.34375 C 25.859375 -59.738281 31.960938 -40.117188 44.171875 -26.484375 C 56.390625 -12.847656 73.125 -6.03125 94.375 -6.03125 Z M 94.375 -6.03125 "/></g></g></g><g clip-path="url(#6b8bccf30f)"><path fill="#000000" d="M 148.515625 139.792969 L 148.515625 66.15625 L 172.285156 66.15625 L 172.285156 139.792969 Z M 148.515625 139.792969 " fill-opacity="1" fill-rule="nonzero"/></g><g clip-path="url(#b92e25e4eb)"><path fill="#000000" d="M 148.515625 273.574219 L 148.515625 199.9375 L 172.285156 199.9375 L 172.285156 273.574219 Z M 148.515625 273.574219 " fill-opacity="1" fill-rule="nonzero"/></g><g clip-path="url(#a61ea9df12)"><path fill="#000000" d="M 173.46875 158.359375 L 247.105469 158.359375 L 247.105469 182.128906 L 173.46875 182.128906 Z M 173.46875 158.359375 " fill-opacity="1" fill-rule="nonzero"/></g><g fill="#f8f8f8" fill-opacity="1"><g transform="translate(156.380312, 260.540584)"><g><path d="M 115.71875 -171.6875 L 30.125 -171.6875 L 30.125 -94.125 L 114.953125 -94.125 L 114.953125 -87.59375 L 30.125 -87.59375 L 30.125 -6.53125 L 119.984375 -6.53125 L 118.71875 0 L 22.59375 0 L 22.59375 -178.203125 L 115.71875 -178.203125 Z M 115.71875 -171.6875 "/></g></g></g></svg>